<svg xmlns="http://www.w3.org/2000/svg" viewBox="0 0 32 32" fill="none">
  <!-- Dark rounded background -->
  <rect width="32" height="32" rx="7" fill="#0d1117"/>

  <!-- Left film-reel wing -->
  <path fill-rule="evenodd"
    d="M12.4 16.7 L4.1 8.5 A11.6 11.6 0 0 1 4.1 24.9 Z
       M5.8 12.0 h1.8 v1.6 h-1.8 Z
       M5.8 19.3 h1.8 v1.6 h-1.8 Z"
    fill="#22c55e" opacity="0.85"/>

  <!-- Right film-reel wing -->
  <path fill-rule="evenodd"
    d="M19.6 16.7 L27.9 8.5 A11.6 11.6 0 0 0 27.9 24.9 Z
       M24.4 12.0 h1.8 v1.6 h-1.8 Z
       M24.4 19.3 h1.8 v1.6 h-1.8 Z"
    fill="#22c55e" opacity="0.85"/>

  <!-- Owl body -->
  <ellipse cx="16" cy="26.2" rx="7.3" ry="6.2" fill="#22c55e"/>

  <!-- Owl head -->
  <circle cx="16" cy="14.5" r="9.5" fill="#22c55e"/>

  <!-- Left ear tuft -->
  <polygon points="11.6,6.5 8.7,0.7 14.5,8.0" fill="#22c55e"/>

  <!-- Right ear tuft -->
  <polygon points="20.4,6.5 17.5,8.0 23.3,0.7" fill="#22c55e"/>

  <!-- Left eye -->
  <circle cx="12.4" cy="13.8" r="4.0" fill="white"/>
  <circle cx="12.8" cy="14.2" r="2.4" fill="#0d1117"/>
  <circle cx="11.6" cy="12.8" r="0.8" fill="white"/>

  <!-- Right eye -->
  <circle cx="19.6" cy="13.8" r="4.0" fill="white"/>
  <circle cx="19.2" cy="14.2" r="2.4" fill="#0d1117"/>
  <circle cx="18.4" cy="12.8" r="0.8" fill="white"/>
</svg>
